<svg width="276" height="86" viewBox="0 0 276 86" fill="none" xmlns="http://www.w3.org/2000/svg">
<rect width="276" height="86" rx="12" fill="white"/>
<path d="M72.7188 32.5653H73.9886C73.9503 31.1676 72.7145 30.1534 70.9418 30.1534C69.1903 30.1534 67.848 31.1548 67.848 32.6591C67.848 33.8736 68.7173 34.5852 70.1193 34.9645L71.1506 35.2457C72.0838 35.4929 72.804 35.7997 72.804 36.5753C72.804 37.4276 71.9901 37.9901 70.8693 37.9901C69.8551 37.9901 69.0114 37.5384 68.9347 36.5881H67.6136C67.6989 38.169 68.9219 39.1449 70.8778 39.1449C72.9276 39.1449 74.108 38.0668 74.108 36.5881C74.108 35.0156 72.706 34.4062 71.598 34.1335L70.7457 33.9119C70.0639 33.7372 69.1562 33.4176 69.1605 32.5824C69.1605 31.8409 69.8381 31.2912 70.9119 31.2912C71.9134 31.2912 72.625 31.7599 72.7188 32.5653ZM78.4002 39.1321C79.8278 39.1321 80.8377 38.429 81.1275 37.3636L79.9215 37.1463C79.6914 37.7642 79.1374 38.0795 78.413 38.0795C77.3221 38.0795 76.5891 37.3722 76.555 36.1108H81.2085V35.6591C81.2085 33.294 79.7937 32.3693 78.3107 32.3693C76.4869 32.3693 75.2852 33.7585 75.2852 35.7699C75.2852 37.8026 76.4698 39.1321 78.4002 39.1321ZM76.5593 35.1562C76.6104 34.2273 77.2837 33.4219 78.3192 33.4219C79.3079 33.4219 79.9556 34.1548 79.9599 35.1562H76.5593ZM83.8963 35.1136C83.8963 34.0696 84.5355 33.473 85.4219 33.473C86.2869 33.473 86.8111 34.0398 86.8111 34.9901V39H88.0852V34.8366C88.0852 33.2173 87.1946 32.3693 85.8565 32.3693C84.8722 32.3693 84.2287 32.8253 83.9261 33.5199H83.8452V32.4545H82.6222V39H83.8963V35.1136ZM92.2443 39.1278C93.4375 39.1278 93.9062 38.3991 94.1364 37.9815H94.2429V39H95.4872V30.2727H94.2131V33.5156H94.1364C93.9062 33.1108 93.4716 32.3693 92.2528 32.3693C90.6719 32.3693 89.5085 33.6179 89.5085 35.7401C89.5085 37.858 90.6548 39.1278 92.2443 39.1278ZM92.5256 38.0412C91.3878 38.0412 90.7955 37.0398 90.7955 35.7273C90.7955 34.4276 91.375 33.4517 92.5256 33.4517C93.6378 33.4517 94.2344 34.3594 94.2344 35.7273C94.2344 37.1037 93.625 38.0412 92.5256 38.0412ZM100.584 30.2727V39H101.837V32.6804H101.918L104.491 38.9872H105.531L108.105 32.6847H108.186V39H109.439V30.2727H107.841L105.062 37.0568H104.96L102.182 30.2727H100.584ZM114.008 39.1321C115.853 39.1321 117.059 37.7812 117.059 35.7571C117.059 33.7202 115.853 32.3693 114.008 32.3693C112.163 32.3693 110.957 33.7202 110.957 35.7571C110.957 37.7812 112.163 39.1321 114.008 39.1321ZM114.012 38.0625C112.806 38.0625 112.244 37.0099 112.244 35.7528C112.244 34.5 112.806 33.4347 114.012 33.4347C115.21 33.4347 115.772 34.5 115.772 35.7528C115.772 37.0099 115.21 38.0625 114.012 38.0625ZM119.756 35.1136C119.756 34.0696 120.395 33.473 121.281 33.473C122.146 33.473 122.67 34.0398 122.67 34.9901V39H123.945V34.8366C123.945 33.2173 123.054 32.3693 121.716 32.3693C120.732 32.3693 120.088 32.8253 119.786 33.5199H119.705V32.4545H118.482V39H119.756V35.1136ZM128.474 39.1321C129.902 39.1321 130.912 38.429 131.202 37.3636L129.996 37.1463C129.766 37.7642 129.212 38.0795 128.487 38.0795C127.396 38.0795 126.663 37.3722 126.629 36.1108H131.283V35.6591C131.283 33.294 129.868 32.3693 128.385 32.3693C126.561 32.3693 125.359 33.7585 125.359 35.7699C125.359 37.8026 126.544 39.1321 128.474 39.1321ZM126.634 35.1562C126.685 34.2273 127.358 33.4219 128.393 33.4219C129.382 33.4219 130.03 34.1548 130.034 35.1562H126.634ZM133.303 41.4545C134.355 41.4545 135.02 40.9048 135.399 39.8736L138.105 32.4673L136.729 32.4545L135.071 37.5341H135.003L133.345 32.4545H131.982L134.376 39.0852L134.219 39.5199C133.895 40.3892 133.439 40.4616 132.74 40.2699L132.433 41.3139C132.587 41.3821 132.919 41.4545 133.303 41.4545Z" fill="#212832"/>
<path d="M68.179 56L68.9105 53.9403H71.8509L72.5824 56H73.5057L70.8352 48.7273H69.9261L67.2557 56H68.179ZM69.1875 53.1591L70.3523 49.8778H70.4091L71.5739 53.1591H69.1875ZM74.5835 56H75.4215V50.5455H74.5835V56ZM75.0096 49.6364C75.3363 49.6364 75.6062 49.3807 75.6062 49.0682C75.6062 48.7557 75.3363 48.5 75.0096 48.5C74.6829 48.5 74.413 48.7557 74.413 49.0682C74.413 49.3807 74.6829 49.6364 75.0096 49.6364ZM76.9565 56H77.7946V52.5483C77.7946 51.8097 78.377 51.2699 79.1724 51.2699C79.3961 51.2699 79.627 51.3125 79.6838 51.3267V50.4744C79.5879 50.4673 79.3677 50.4602 79.2434 50.4602C78.59 50.4602 78.0218 50.8295 77.823 51.3693H77.7662V50.5455H76.9565V56ZM80.7908 56H81.6005V55.1619H81.6999C81.8846 55.4602 82.2397 56.1136 83.2908 56.1136C84.6545 56.1136 85.6062 55.0199 85.6062 53.2869C85.6062 51.5682 84.6545 50.4744 83.2766 50.4744C82.2113 50.4744 81.8846 51.1278 81.6999 51.4119H81.6289V48.7273H80.7908V56ZM81.6147 53.2727C81.6147 52.0511 82.1545 51.2273 83.1772 51.2273C84.2425 51.2273 84.7681 52.1222 84.7681 53.2727C84.7681 54.4375 84.2283 55.3608 83.1772 55.3608C82.1687 55.3608 81.6147 54.5085 81.6147 53.2727ZM87.7262 52.7188C87.7262 51.767 88.3157 51.2273 89.1183 51.2273C89.896 51.2273 90.3683 51.7351 90.3683 52.5909V56H91.2063V52.5341C91.2063 51.142 90.4641 50.4744 89.3597 50.4744C88.5359 50.4744 88.0245 50.8438 87.7688 51.3977H87.6978V50.5455H86.8881V56H87.7262V52.7188ZM92.8514 56H93.661V55.1619H93.7605C93.9451 55.4602 94.3002 56.1136 95.3514 56.1136C96.715 56.1136 97.6667 55.0199 97.6667 53.2869C97.6667 51.5682 96.715 50.4744 95.3372 50.4744C94.2718 50.4744 93.9451 51.1278 93.7605 51.4119H93.6895V48.7273H92.8514V56ZM93.6752 53.2727C93.6752 52.0511 94.215 51.2273 95.2377 51.2273C96.3031 51.2273 96.8287 52.1222 96.8287 53.2727C96.8287 54.4375 96.2889 55.3608 95.2377 55.3608C94.2292 55.3608 93.6752 54.5085 93.6752 53.2727ZM101.875 56H102.756V53.3438H104.346C106.04 53.3438 106.804 52.3139 106.804 51.0284C106.804 49.7429 106.04 48.7273 104.332 48.7273H101.875V56ZM102.756 52.5625V49.5085H104.304C105.486 49.5085 105.937 50.1548 105.937 51.0284C105.937 51.902 105.486 52.5625 104.318 52.5625H102.756ZM109.714 56.1278C110.666 56.1278 111.163 55.6165 111.333 55.2614H111.376V56H112.214V52.4062C112.214 50.6733 110.893 50.4744 110.197 50.4744C109.373 50.4744 108.436 50.7585 108.009 51.7528L108.805 52.0369C108.99 51.6392 109.426 51.2131 110.225 51.2131C110.996 51.2131 111.376 51.6214 111.376 52.321V52.3494C111.376 52.7543 110.964 52.7188 109.97 52.8466C108.958 52.978 107.853 53.2017 107.853 54.4517C107.853 55.517 108.677 56.1278 109.714 56.1278ZM109.842 55.375C109.174 55.375 108.691 55.0767 108.691 54.4943C108.691 53.8551 109.274 53.6562 109.927 53.571C110.282 53.5284 111.234 53.429 111.376 53.2585V54.0256C111.376 54.7074 110.836 55.375 109.842 55.375ZM114.088 58.0455C114.844 58.0455 115.377 57.6442 115.693 56.7955L118.016 50.5597L117.099 50.5455L115.594 54.892H115.537L114.031 50.5455H113.122L115.139 56.0284L114.983 56.4545C114.678 57.2855 114.301 57.3636 113.69 57.2074L113.477 57.946C113.562 57.9886 113.804 58.0455 114.088 58.0455ZM119.124 56H119.963V52.5909C119.963 51.7919 120.545 51.2273 121.198 51.2273C121.834 51.2273 122.278 51.6428 122.278 52.2642V56H123.13V52.4489C123.13 51.7457 123.57 51.2273 124.338 51.2273C124.934 51.2273 125.445 51.5433 125.445 52.3494V56H126.284V52.3494C126.284 51.0675 125.595 50.4744 124.622 50.4744C123.84 50.4744 123.269 50.8331 122.988 51.3977H122.931C122.661 50.8153 122.186 50.4744 121.468 50.4744C120.758 50.4744 120.232 50.8153 120.005 51.3977H119.934V50.5455H119.124V56ZM130.103 56.1136C131.211 56.1136 132.02 55.5597 132.276 54.7358L131.466 54.5085C131.253 55.0767 130.76 55.3608 130.103 55.3608C129.119 55.3608 128.441 54.7251 128.402 53.5568H132.361V53.2017C132.361 51.1705 131.154 50.4744 130.018 50.4744C128.54 50.4744 127.56 51.6392 127.56 53.3153C127.56 54.9915 128.526 56.1136 130.103 56.1136ZM128.402 52.8324C128.459 51.9837 129.059 51.2273 130.018 51.2273C130.927 51.2273 131.509 51.9091 131.509 52.8324H128.402ZM134.474 52.7188C134.474 51.767 135.064 51.2273 135.866 51.2273C136.644 51.2273 137.116 51.7351 137.116 52.5909V56H137.954V52.5341C137.954 51.142 137.212 50.4744 136.108 50.4744C135.284 50.4744 134.773 50.8438 134.517 51.3977H134.446V50.5455H133.636V56H134.474V52.7188ZM141.858 50.5455H140.693V49.2386H139.855V50.5455H139.031V51.2557H139.855V54.6648C139.855 55.6165 140.622 56.071 141.332 56.071C141.645 56.071 141.844 56.0142 141.957 55.9716L141.787 55.2188C141.716 55.233 141.602 55.2614 141.418 55.2614C141.048 55.2614 140.693 55.1477 140.693 54.4375V51.2557H141.858V50.5455Z" fill="#696D76"/>
<path d="M217.18 34.5568H212.089V35.8068H217.18V34.5568ZM227.449 42.4545H228.381V41.1875C230.767 41.0227 232.108 39.6136 232.108 37.8409C232.108 35.6591 230.04 34.9545 228.835 34.6364L228.381 34.5114V30.4716C229.585 30.5909 230.46 31.2386 230.585 32.2727H231.949C231.892 30.6136 230.438 29.3523 228.381 29.2159V27.9091H227.449V29.233C225.5 29.4318 224.04 30.6705 224.04 32.4545C224.04 34.0227 225.176 34.9545 226.994 35.4773L227.449 35.608V39.9091C226.256 39.7841 225.278 39.1705 225.176 38H223.722C223.852 39.7898 225.216 41.0398 227.449 41.1875V42.4545ZM228.381 39.9091V35.875L228.426 35.8864C229.653 36.2273 230.744 36.6591 230.744 37.8182C230.744 38.9602 229.756 39.7557 228.381 39.9091ZM227.449 34.2614C226.585 34.017 225.403 33.5398 225.403 32.3864C225.403 31.4034 226.199 30.6534 227.449 30.4886V34.2614ZM238.084 41.1591C240.436 41.1875 241.97 39.4148 241.97 37.25C241.97 35 240.305 33.3864 238.311 33.3864C237.112 33.3864 236.084 33.9716 235.447 34.9318H235.357C235.362 32.0966 236.464 30.4545 238.266 30.4545C239.493 30.4545 240.232 31.2273 240.493 32.2727H241.879C241.595 30.4659 240.22 29.2045 238.266 29.2045C235.646 29.2045 234.038 31.5227 234.038 35.6364C234.038 39.9375 236.175 41.1364 238.084 41.1591ZM238.084 39.9091C236.624 39.9091 235.555 38.6648 235.561 37.2727C235.567 35.8807 236.686 34.6364 238.129 34.6364C239.555 34.6364 240.607 35.8068 240.607 37.25C240.607 38.7273 239.51 39.9091 238.084 39.9091ZM248 41.1591C250.568 41.1591 252.045 38.983 252.045 35.1818C252.045 31.4091 250.545 29.2045 248 29.2045C245.455 29.2045 243.955 31.4091 243.955 35.1818C243.955 38.983 245.432 41.1591 248 41.1591ZM248 39.9091C246.307 39.9091 245.318 38.2102 245.318 35.1818C245.318 32.1591 246.318 30.4318 248 30.4318C249.682 30.4318 250.682 32.1591 250.682 35.1818C250.682 38.2102 249.693 39.9091 248 39.9091ZM258 41.1591C260.568 41.1591 262.045 38.983 262.045 35.1818C262.045 31.4091 260.545 29.2045 258 29.2045C255.455 29.2045 253.955 31.4091 253.955 35.1818C253.955 38.983 255.432 41.1591 258 41.1591ZM258 39.9091C256.307 39.9091 255.318 38.2102 255.318 35.1818C255.318 32.1591 256.318 30.4318 258 30.4318C259.682 30.4318 260.682 32.1591 260.682 35.1818C260.682 38.2102 259.693 39.9091 258 39.9091Z" fill="#212832"/>
<path d="M234.333 52.5455H235.185C235.146 51.4482 234.134 50.6278 232.727 50.6278C231.335 50.6278 230.242 51.4375 230.242 52.6591C230.242 53.6392 230.952 54.2216 232.088 54.5483L232.983 54.804C233.75 55.017 234.432 55.2869 234.432 56.0114C234.432 56.8068 233.665 57.3324 232.656 57.3324C231.79 57.3324 231.023 56.9489 230.952 56.125H230.043C230.128 57.3182 231.094 58.1278 232.656 58.1278C234.333 58.1278 235.284 57.2045 235.284 56.0256C235.284 54.6619 233.992 54.2216 233.239 54.0227L232.5 53.8239C231.96 53.6818 231.094 53.3977 231.094 52.6165C231.094 51.9205 231.733 51.4091 232.699 51.4091C233.58 51.4091 234.247 51.8281 234.333 52.5455ZM238.906 58.1136C240.013 58.1136 240.823 57.5597 241.079 56.7358L240.269 56.5085C240.056 57.0767 239.562 57.3608 238.906 57.3608C237.922 57.3608 237.244 56.7251 237.205 55.5568H241.164V55.2017C241.164 53.1705 239.957 52.4744 238.82 52.4744C237.343 52.4744 236.363 53.6392 236.363 55.3153C236.363 56.9915 237.329 58.1136 238.906 58.1136ZM237.205 54.8324C237.261 53.9837 237.862 53.2273 238.82 53.2273C239.729 53.2273 240.312 53.9091 240.312 54.8324H237.205ZM242.439 60.0455H243.277V57.1619H243.348C243.533 57.4602 243.888 58.1136 244.939 58.1136C246.303 58.1136 247.254 57.0199 247.254 55.2869C247.254 53.5682 246.303 52.4744 244.925 52.4744C243.859 52.4744 243.533 53.1278 243.348 53.4119H243.249V52.5455H242.439V60.0455ZM243.263 55.2727C243.263 54.0511 243.803 53.2273 244.825 53.2273C245.891 53.2273 246.416 54.1222 246.416 55.2727C246.416 56.4375 245.876 57.3608 244.825 57.3608C243.817 57.3608 243.263 56.5085 243.263 55.2727ZM251.331 58H255.919V57.2188H252.538V57.1619L254.172 55.4148C255.422 54.076 255.791 53.451 255.791 52.6449C255.791 51.5227 254.882 50.6278 253.604 50.6278C252.329 50.6278 251.359 51.4943 251.359 52.7727H252.197C252.197 51.9453 252.734 51.3949 253.575 51.3949C254.364 51.3949 254.967 51.8778 254.967 52.6449C254.967 53.3161 254.573 53.8132 253.732 54.733L251.331 57.3608V58ZM259.843 58.0994C261.253 58.0994 262.3 57.2152 262.3 56.0256C262.3 55.1023 261.754 54.4311 260.837 54.2784V54.2216C261.572 53.9979 262.031 53.3942 262.031 52.5739C262.031 51.544 261.217 50.6278 259.871 50.6278C258.614 50.6278 257.57 51.402 257.528 52.5455H258.38C258.412 51.821 259.101 51.3949 259.857 51.3949C260.66 51.3949 261.178 51.8814 261.178 52.6165C261.178 53.3835 260.578 53.8807 259.715 53.8807H259.133V54.6619H259.715C260.82 54.6619 261.434 55.223 261.434 56.0256C261.434 56.7962 260.763 57.3182 259.829 57.3182C258.987 57.3182 258.32 56.8849 258.266 56.1818H257.371C257.425 57.3253 258.433 58.0994 259.843 58.0994Z" fill="#696D76"/>
<rect opacity="0.1" x="13" y="23" width="40" height="40" rx="8" fill="#DA6464"/>
<path d="M30.291 47.6757V51.5404C30.291 51.8104 30.4643 52.0495 30.721 52.1345C30.7851 52.1553 30.851 52.1653 30.916 52.1653C31.111 52.1653 31.2993 52.0737 31.4193 51.9104L33.6799 48.8339L30.291 47.6757Z" fill="#DA6464"/>
<path d="M42.7361 33.1159C42.5445 32.9801 42.2928 32.9617 42.0845 33.0709L23.3358 42.8619C23.1142 42.9777 22.9834 43.2143 23.0017 43.4635C23.0209 43.7135 23.1867 43.9268 23.4225 44.0076L28.6346 45.7892L39.7347 36.2982L31.1453 46.6466L39.8805 49.6322C39.9455 49.6539 40.0138 49.6655 40.0821 49.6655C40.1955 49.6655 40.308 49.6347 40.4071 49.5747C40.5654 49.4781 40.6729 49.3156 40.7004 49.1331L42.9919 33.7175C43.0261 33.4842 42.9278 33.2526 42.7361 33.1159V33.1159Z" fill="#DA6464"/>
</svg>
